<?xml version="1.0" encoding="utf-8"?>
<!-- Generator: Adobe Illustrator 16.2.0, SVG Export Plug-In . SVG Version: 6.00 Build 0)  -->
<!DOCTYPE svg PUBLIC "-//W3C//DTD SVG 1.1//EN" "http://www.w3.org/Graphics/SVG/1.1/DTD/svg11.dtd">
<svg version="1.1" id="Layer_1" xmlns="http://www.w3.org/2000/svg" xmlns:xlink="http://www.w3.org/1999/xlink" x="0px" y="0px"
	 width="792px" height="612px" viewBox="0 0 792 612" enable-background="new 0 0 792 612" xml:space="preserve">
<path fill="#FFFFFF" d="M151.521,299.544l1.567-15.685c-0.298-7.203-2.01-13.706-5.092-19.678l-8.24,11.396
	c1.138,3.794,1.598,7.894,1.254,12.169c-1.567,19.597-19.373,35.483-39.771,35.483c-4.789,0-9.294-0.875-13.366-2.469l49.245-51.445
	l20.793-21.094l-14.809,7.828c-9.821-12.364-25.608-19.707-43.707-18.982c-31.138,1.245-57.593,26.578-59.089,56.582
	c-1.497,30.006,22.528,53.32,53.666,52.075C121.432,344.627,145.25,324.792,151.521,299.544z M207.452,311.943
	c0.843-8.413,0.145-14.518-2.092-18.314c-2.185-3.794-6.024-5.691-11.512-5.693c-2.412,0-4.862,0.383-7.348,1.153
	c-2.438,0.769-4.886,1.924-7.349,3.463l-4.347,43.475c1.373,0.616,2.893,1.054,4.562,1.31c1.718,0.256,3.756,0.383,6.119,0.383
	c6.564,0,11.651-2.128,15.259-6.386C204.353,327.024,206.588,320.56,207.452,311.943z M268.211,357.494
	c-10.98,0-18.757-2.253-23.331-6.77c-4.526-4.515-6.275-11.9-5.248-22.161l4.041-40.398h-9.838
	c1.709,6.512,2.114,14.257,1.217,23.238c-1.38,13.801-6.008,24.931-13.881,33.396c-7.824,8.465-16.866,12.694-27.123,12.694
	c-4.311,0-8.008-0.487-11.09-1.46c-3.082-0.976-6.318-2.488-9.703-4.54l-3.6,36.011h-26.931l4.878-48.787
	c-14.38,19.257-37.136,31.919-61.8,31.919c-39.458,0-68.852-32.408-65.654-72.387c3.199-39.979,37.777-72.387,77.238-72.387
	c20.002,0,37.42,8.328,49.314,21.749l22.696-8.692l-13.41,22.353c1.321,2.604,2.478,5.316,3.458,8.117l22.022,0.002l-0.9,9.002
	c4.287-3.388,8.588-6.131,12.903-8.233c4.313-2.102,9.161-3.153,14.551-3.156c4.474,0,8.415,0.795,11.826,2.384l25.702,0.002
	l2.469-24.701h26.933l-2.471,24.701h25.932l-1.877,18.774h-25.932l-3.063,30.626c-0.303,3.027-0.542,5.669-0.715,7.925
	c-0.175,2.258,0.031,4.284,0.623,6.079c0.538,1.796,1.651,3.23,3.34,4.308c1.743,1.027,4.358,1.539,7.847,1.539
	c1.437,0,3.337-0.308,5.709-0.924c2.421-0.615,4.118-1.179,5.094-1.692h2.31l-1.9,19.006c-3.001,0.77-6.165,1.359-9.489,1.771
	C277.029,357.265,272.981,357.494,268.211,357.494z M67.147,287.747c1.568-19.598,19.374-35.486,39.771-35.486
	c10.226,0,19.164,3.996,25.336,10.448L71.77,307.427C68.305,301.795,66.565,295.025,67.147,287.747z M322.58,355.802h-26.931
	l8.642-86.41h26.931L322.58,355.802z M333.223,257.078h-28.469l2.1-21.006h28.472L333.223,257.078z M432.018,355.802l4.318-43.167
	c0.426-4.256,0.707-7.845,0.846-10.773c0.139-2.923-0.085-5.31-0.67-7.156c-0.583-1.847-1.656-3.179-3.216-4
	c-1.505-0.871-3.716-1.307-6.64-1.309c-2.054,0-4.125,0.461-6.219,1.385c-2.086,0.874-4.395,2.13-6.916,3.771l-6.127,61.25H380.31
	l4.318-43.167c0.419-4.207,0.672-7.769,0.761-10.695c0.144-2.976-0.077-5.385-0.662-7.234c-0.584-1.847-1.659-3.179-3.217-4
	c-1.504-0.871-3.693-1.307-6.563-1.309c-2.208,0-4.414,0.516-6.617,1.539c-2.206,1.027-4.379,2.232-6.518,3.617l-6.125,61.25
	h-26.931l8.64-86.41h26.934l-0.955,9.54c4.785-3.742,9.233-6.668,13.342-8.77c4.109-2.102,8.6-3.153,13.474-3.156
	c5.284,0,9.799,1.257,13.551,3.771c3.75,2.514,6.426,6.259,8.033,11.234c5.662-4.822,10.905-8.515,15.729-11.081
	c4.877-2.618,9.676-3.925,14.396-3.925c4.001,0,7.527,0.642,10.58,1.922c3.05,1.285,5.551,3.21,7.503,5.771
	c2.132,2.772,3.597,6.079,4.394,9.928c0.851,3.797,0.97,8.773,0.354,14.927l-5.625,56.248H432.018z M502.16,257.078h-28.471
	l2.101-21.006h28.471L502.16,257.078z M572.072,335.182c-3.184-6.668-4.294-14.807-3.334-24.415
	c1.411-14.105,6.589-25.366,15.537-33.781c8.944-8.411,20.703-12.617,35.272-12.619c13.233,0,22.827,3.567,28.786,10.697
	c5.954,7.132,8.267,17.339,6.94,30.624l-0.971,9.696h-59.019c-0.145,4.001,0.365,7.364,1.531,10.079
	c1.169,2.67,2.854,4.799,5.056,6.387c2.149,1.593,4.728,2.746,7.733,3.463c3.01,0.67,6.337,1.002,9.979,1.002
	c3.128,0,6.24-0.332,9.333-1.002c3.098-0.717,5.96-1.64,8.59-2.77c2.302-0.973,4.431-2.023,6.394-3.155
	c2.01-1.127,3.648-2.128,4.916-3.001h2.848l-2.225,22.239c-2.294,0.873-4.4,1.692-6.325,2.462c-1.868,0.719-4.432,1.463-7.688,2.231
	c-3,0.77-6.087,1.359-9.257,1.769c-2.341,0.348-5.061,0.563-8.155,0.651l-126.497,0.063h-2.775h-24.158l8.643-86.41h26.931
	l-6.538,65.381l42.985-45.144l-32.079,0.116l2.33-19.811l65.244-0.542l-1.747,17.465l-46.151,48.325H572.072z M629.381,299.146
	c0.416-5.693-0.485-10.027-2.701-13.002c-2.164-2.976-5.813-4.462-10.941-4.464c-5.232,0-9.494,1.567-12.781,4.694
	c-3.237,3.132-5.278,7.388-6.124,12.773H629.381z M774.617,267.06l-55.442,118.114h-28.933l16.461-33.779l-18.353-66.517
	l-6.859,68.595h-26.934l11.976-119.73h26.932l-3.333,33.318h21.619l12.742,54.172l22.424-54.172H774.617z"/>
</svg>
